<svg width="25" height="25" viewBox="0 0 25 25" fill="none" xmlns="http://www.w3.org/2000/svg">
<path d="M12.4929 25C5.6 25 -0.00708008 19.3922 -0.00708008 12.5C-0.00708008 5.60782 5.6 0 12.4929 0C19.3858 0 24.9929 5.60708 24.9929 12.5C24.9929 19.3929 19.3858 25 12.4929 25ZM4.80745 20.8973C6.44217 22.395 8.5139 23.4223 10.8071 23.7638C9.44421 22.5498 8.32798 21.0869 7.50285 19.4618C6.47254 19.8307 5.55555 20.3144 4.80745 20.8973ZM17.6297 19.5196C16.8149 21.1069 15.7224 22.5372 14.3928 23.7297C16.5979 23.3579 18.5896 22.3498 20.1725 20.9017C19.4614 20.3469 18.5985 19.881 17.6297 19.5188V19.5196ZM13.0484 18.6507V23.4119C14.5039 22.2557 15.6912 20.8084 16.5579 19.1729C15.4683 18.8722 14.2802 18.6922 13.0484 18.6507ZM8.5813 19.1292C9.41458 20.7151 10.5493 22.1276 11.9374 23.2697V18.6507C10.7634 18.69 9.62939 18.8544 8.5813 19.1292ZM18.1 18.5137C19.1896 18.9292 20.1614 19.467 20.9598 20.1084C22.6597 18.2189 23.7374 15.7591 23.8685 13.0548H19.2999C19.2347 14.9643 18.82 16.8131 18.1007 18.513L18.1 18.5137ZM1.1173 13.0555C1.24766 15.7568 2.32389 18.2145 4.02083 20.1033C4.85708 19.4322 5.88368 18.8752 7.03621 18.453C6.33254 16.7694 5.92664 14.9421 5.8622 13.0555H1.1173ZM13.0484 17.5397C14.4491 17.5849 15.8038 17.7989 17.043 18.1604C17.7259 16.5738 18.1215 14.8443 18.1874 13.0555H13.0484V17.5397ZM6.97473 13.0555C7.03991 14.8258 7.42804 16.539 8.09837 18.1123C9.29533 17.7789 10.5953 17.5812 11.9374 17.539V13.0555H6.97399H6.97473ZM19.2977 11.9445H23.8685C23.7382 9.24019 22.6597 6.78034 20.9598 4.89082C20.1577 5.53597 19.1799 6.07594 18.083 6.49221C18.8074 8.18989 19.2273 10.0364 19.2977 11.9437V11.9445ZM13.0484 11.9445H18.1859C18.1148 10.1579 17.7134 8.42913 17.0252 6.84478C15.7905 7.20254 14.4424 7.41512 13.0484 7.4603V11.9445ZM6.97621 11.9445H11.9374V7.4603C10.6019 7.41808 9.30866 7.22179 8.11688 6.89218C7.44137 8.46394 7.04732 10.175 6.97695 11.9445H6.97621ZM1.1173 11.9445H5.86442C5.93405 10.0594 6.34514 8.23359 7.05398 6.55295C5.89405 6.13001 4.86152 5.57078 4.02083 4.89675C2.32389 6.78552 1.24766 9.24316 1.1173 11.9445ZM8.60278 5.87595C9.64494 6.14704 10.7715 6.31 11.9374 6.34925V1.77619C10.5612 2.90872 9.43458 4.30641 8.60278 5.87595ZM13.0484 1.63324V6.34851C14.2713 6.30703 15.452 6.12853 16.5356 5.83225C15.6713 4.21382 14.4913 2.77984 13.0484 1.63324ZM4.80745 4.10198C5.56074 4.68787 6.48439 5.17525 7.52284 5.54486C8.35835 3.91088 9.48939 2.44134 10.8686 1.22659C8.55093 1.55917 6.45624 2.5917 4.80671 4.10272L4.80745 4.10198ZM14.3298 1.25918C15.6764 2.45393 16.7838 3.89088 17.6097 5.48708C18.5866 5.12414 19.457 4.65528 20.1732 4.09679C18.5755 2.6354 16.5608 1.62213 14.3306 1.25844L14.3298 1.25918Z" fill="white"/>
</svg>
